<?xml version="1.0" encoding="utf-8"?>
<!-- Generator: Adobe Illustrator 24.2.3, SVG Export Plug-In . SVG Version: 6.00 Build 0)  -->
<svg version="1.1" xmlns="http://www.w3.org/2000/svg" xmlns:xlink="http://www.w3.org/1999/xlink" x="0px" y="0px"
	 viewBox="0 0 2224 645" style="enable-background:new 0 0 2224 645;" xml:space="preserve">
<style type="text/css">
	.st0{display:none;}
	.st1{display:inline;}
	.st2{fill:#EC228F;}
	.st3{fill:none;stroke:#EC228F;stroke-miterlimit:10;}
	.st4{fill:none;}
	.st5{fill:#00335A;}
	.st6{fill:#006C8E;}
	.st7{fill:#33B6B1;}
	.st8{fill:#99DAD8;}
</style>
<g id="Build" class="st0">
	<g class="st1">
		<g>
			<path class="st2" d="M273.7,371.8v60.8h-60.8v-60.8H273.7 M274.7,370.8h-62.8v62.8h62.8V370.8L274.7,370.8z"/>
		</g>
		<g>
			<path class="st2" d="M2011.7,403.2v29.4H212.9v-29.4H2011.7 M2012.7,402.2H211.9v31.4h1800.8V402.2L2012.7,402.2z"/>
		</g>
		<g>
			<path class="st2" d="M2011.7,211.9v30.5H212.9v-30.5H2011.7 M2012.7,210.9H211.9v32.5h1800.8V210.9L2012.7,210.9z"/>
		</g>
		<g>
			<path class="st2" d="M210.9,1.2v209.3H1.6V1.2H210.9 M211.9,0.2H0.6v211.3h211.3V0.2L211.9,0.2z"/>
		</g>
		<g>
			<path class="st2" d="M210.9,434.6v209.3H1.6V434.6H210.9 M211.9,433.6H0.6v211.3h211.3V433.6L211.9,433.6z"/>
		</g>
		<g>
			<path class="st2" d="M2223,434.6v209.3h-209.3V434.6H2223 M2224,433.6h-211.3v211.3H2224V433.6L2224,433.6z"/>
		</g>
		<g>
			<path class="st2" d="M2223,1.4v209.3h-209.3V1.4H2223 M2224,0.4h-211.3v211.3H2224V0.4L2224,0.4z"/>
		</g>
		<g>
			<line class="st3" x1="274.2" y1="433" x2="212.5" y2="371.3"/>
		</g>
		<line class="st3" x1="274.1" y1="371.4" x2="212.5" y2="433"/>
		<g>
			<line class="st3" x1="211.9" y1="322.5" x2="2012.7" y2="322.5"/>
		</g>
	</g>
</g>
<g id="Layer_1">
	<rect x="0.6" y="0.4" class="st4" width="2223.4" height="644.6"/>
	<path class="st5" d="M910.3,211.5h-62.6c-6.6,0-12.9,2.9-17.1,8l-63.7,77h-6.3v-85h-62.2v222.1h62.2v-85h6.3l63.7,77
		c4.2,5.1,10.5,8,17.1,8h62.6l-88.8-111.1L910.3,211.5z"/>
	<path class="st5" d="M661.6,338.6c-7.2-9.4-17.1-16.3-29.8-20.8c9.5-4.9,16.9-11.5,22-19.8c5.2-8.4,7.8-17.8,7.8-28.4
		c0-17.8-7.4-31.9-22.2-42.4c-14.8-10.5-36.4-15.7-64.7-15.7H461.1v222.1h120c29.6,0,52.2-5.3,67.9-15.9
		c15.7-10.6,23.5-25.6,23.5-45C672.4,359.3,668.8,348,661.6,338.6z M523.3,256.9h43.2c21.2,0,31.7,7.1,31.7,21.3
		c0,14.4-10.6,21.6-31.7,21.6h-43.2V256.9z M575.9,388.2h-52.7v-45.1h52.7c22,0,33,7.5,33,22.5C608.9,380.7,597.9,388.2,575.9,388.2
		z"/>
	<path class="st5" d="M423.2,211.5v222.1h-40.7c-12.3,0-22.2-9.9-22.2-22.2v-62.9h-85.7v62.9c0,12.3-9.9,22.2-22.2,22.2h-40.7V211.5
		h40.7c12.2,0,22.2,9.9,22.2,22.2V297h85.7v-63.3c0-12.2,9.9-22.2,22.2-22.2H423.2z"/>
	<g>
		<path class="st5" d="M1999.8,383.5c3.9-1.5,6.9-3.8,8.9-6.9c2.1-3.1,3.1-6.8,3.1-11c0-4.2-1-7.8-2.9-10.8c-2-3-4.7-5.3-8.4-7
			c-3.6-1.6-7.9-2.4-12.9-2.4h-23.4v56.8h10.5v-16.5h12.8c1,0,1.7,0,2.2-0.1l11.6,16.6h11.4L1999.8,383.5z M1997.7,374
			c-2.4,2-5.9,3-10.5,3h-12.3v-22.6h12.3c4.6,0,8.1,1,10.5,2.9c2.4,1.9,3.6,4.7,3.6,8.4C2001.3,369.2,2000.1,372,1997.7,374z"/>
		<path class="st5" d="M1908.6,393.3v-15.7h27.4V369h-27.4v-14.8h30.9v-8.8H1891l-32.9,56.8h10.9l7.5-13.1h21.6v13.1h42.6v-8.8
			H1908.6z M1898,380.8h-16.9l15.1-26.5h1.8V380.8z"/>
		<path class="st5" d="M1811.4,400.8c-3.1-1.4-5.5-3.4-7.5-6l6-7.2c3.1,4.3,6.9,6.5,11.3,6.5c5.9,0,8.8-3.5,8.8-10.5v-29.4h-20.2
			v-8.8h30.7V383c0,6.6-1.6,11.6-4.9,15c-3.2,3.3-8,5-14.3,5C1817.8,403,1814.5,402.3,1811.4,400.8L1811.4,400.8z"/>
		<polygon class="st5" points="1761.1,378.4 1752,387.7 1752,402.2 1741.5,402.2 1741.5,345.4 1752,345.4 1752,374.5 1780.1,345.4 
			1791.9,345.4 1768.1,370.8 1793.4,402.2 1781.1,402.2 		"/>
		<path class="st5" d="M1678.9,389.7c2.3-3.6,4-7.9,5.1-13l-8.2-2.7c-0.8,3.7-1.8,6.9-3.2,9.6l-12.2-11.7c4.1-2.3,7.1-4.6,8.9-6.9
			s2.7-4.9,2.7-7.8c0-3.8-1.4-6.9-4.1-9.1c-2.8-2.2-6.4-3.4-11-3.4c-5,0-8.9,1.2-12,3.7c-3,2.5-4.5,5.7-4.5,9.7
			c0,2.1,0.5,4.1,1.5,6.1c1,2,2.6,4.1,4.9,6.4c-4.6,2.6-8,5.2-10.1,7.9c-2,2.7-3.1,5.8-3.1,9.3c0,2.9,0.9,5.5,2.7,7.8
			c1.8,2.3,4.3,4.1,7.4,5.4c3.1,1.3,6.7,1.9,10.6,1.9c7.4,0,13.8-2.3,19.1-6.8l7.1,6.9l5.6-6.6L1678.9,389.7z M1651.6,353.6
			c1.3-1.1,3.1-1.7,5.3-1.7c2.1,0,3.7,0.5,4.8,1.4c1.2,1,1.7,2.3,1.7,4c0,1.6-0.6,3-1.9,4.3c-1.3,1.3-3.5,2.9-6.8,4.7
			c-2-2-3.4-3.6-4.1-4.7c-0.7-1.2-1.1-2.4-1.1-3.7C1649.6,356.2,1650.3,354.7,1651.6,353.6z M1655,394.7c-3.5,0-6.3-0.7-8.4-2.2
			c-2.1-1.5-3.2-3.4-3.2-5.8c0-2.1,0.7-3.9,2-5.5c1.3-1.7,3.6-3.4,6.8-5.2l15,14.3C1663.8,393.3,1659.7,394.7,1655,394.7z"/>
		<polygon class="st5" points="1542.9,345.4 1553.4,345.4 1553.4,393.3 1583.1,393.3 1583.1,402.2 1542.9,402.2 		"/>
		<polygon class="st5" points="1519.1,393.3 1519.1,402.2 1476.5,402.2 1476.5,345.4 1518,345.4 1518,354.2 1487.1,354.2 
			1487.1,369 1514.5,369 1514.5,377.7 1487.1,377.7 1487.1,393.3 		"/>
		<path class="st5" d="M1429.4,338.5c-0.9-0.9-1.4-2.1-1.4-3.5c0-1.5,0.5-2.6,1.4-3.6c0.9-0.9,2.1-1.4,3.5-1.4
			c1.4,0,2.6,0.5,3.5,1.4c0.9,0.9,1.4,2.1,1.4,3.6c0,1.4-0.5,2.6-1.4,3.5c-0.9,0.9-2.1,1.4-3.5,1.4
			C1431.5,339.9,1430.4,339.4,1429.4,338.5L1429.4,338.5z"/>
		<path class="st5" d="M1413.7,338.5c-0.9-0.9-1.4-2.1-1.4-3.5c0-1.5,0.5-2.6,1.4-3.6c0.9-0.9,2.1-1.4,3.5-1.4
			c1.4,0,2.6,0.5,3.5,1.4c0.9,0.9,1.4,2.1,1.4,3.6c0,1.4-0.5,2.6-1.4,3.5c-0.9,0.9-2.1,1.4-3.5,1.4
			C1415.8,339.9,1414.6,339.4,1413.7,338.5L1413.7,338.5z"/>
		<path class="st5" d="M1406.6,396.4c-4.4-4.4-6.6-10.7-6.6-18.9v-32h10.5V377c0,11.1,4.8,16.7,14.4,16.7c9.6,0,14.3-5.6,14.3-16.7
			v-31.6h10.4v32c0,8.2-2.2,14.5-6.5,18.9c-4.3,4.4-10.4,6.6-18.3,6.6C1417.1,403,1411,400.8,1406.6,396.4L1406.6,396.4z"/>
		<path class="st5" d="M1364.7,383.5c3.9-1.5,6.9-3.8,9-6.9c2.1-3.1,3.1-6.8,3.1-11c0-4.2-1-7.8-2.9-10.8c-1.9-3-4.7-5.3-8.4-7
			c-3.6-1.6-7.9-2.4-12.9-2.4h-23.4v56.8h10.5v-16.5h12.8c1,0,1.7,0,2.2-0.1l11.6,16.6h11.4L1364.7,383.5z M1362.6,374
			c-2.4,2-5.9,3-10.5,3h-12.3v-22.6h12.3c4.6,0,8.1,1,10.5,2.9c2.4,1.9,3.6,4.7,3.6,8.4C1366.2,369.2,1365,372,1362.6,374z"/>
		<path class="st5" d="M1303.2,377.8c-1.8-2.4-4.3-4.1-7.5-5.1c2.3-1.2,4.1-2.9,5.4-5c1.3-2.2,1.9-4.6,1.9-7.5
			c0-4.6-1.8-8.2-5.4-10.8c-3.6-2.6-8.8-3.9-15.5-3.9h-26.6v56.8h28.2c7.3,0,12.8-1.3,16.5-4c3.8-2.7,5.7-6.5,5.7-11.4
			C1306,383.2,1305.1,380.2,1303.2,377.8z M1266.1,353.7h14.9c3.7,0,6.5,0.7,8.5,2c2,1.3,3,3.3,3,5.9c0,2.5-1,4.5-3,5.8
			c-2,1.3-4.8,2-8.5,2h-14.9V353.7z M1283.1,393.9h-17v-16.4h17c8.2,0,12.2,2.7,12.2,8.2C1295.4,391.2,1291.3,393.9,1283.1,393.9z"
			/>
	</g>
	<g>
		<path class="st5" d="M1827.1,281.4c3.9-1.5,6.9-3.8,9-6.9c2.1-3.1,3.1-6.8,3.1-11c0-4.2-1-7.8-2.9-10.8c-2-3-4.8-5.4-8.4-7
			c-3.6-1.6-7.9-2.4-12.9-2.4h-23.4V300h10.6v-16.5h12.8c1,0,1.7,0,2.2-0.1l11.6,16.6h11.4L1827.1,281.4z M1825,271.9
			c-2.4,2-5.9,3-10.5,3h-12.3v-22.6h12.3c4.6,0,8.1,1,10.5,2.9c2.4,1.9,3.6,4.7,3.6,8.4C1828.6,267.1,1827.4,269.9,1825,271.9z"/>
		<polygon class="st5" points="1767.9,291.2 1767.9,300 1725.4,300 1725.4,243.3 1766.8,243.3 1766.8,252.1 1735.9,252.1 
			1735.9,266.9 1763.3,266.9 1763.3,275.5 1735.9,275.5 1735.9,291.2 		"/>
		<path class="st5" d="M1689.5,271h10v22.6c-2.9,2.3-6.3,4.1-10.2,5.4c-3.9,1.2-7.9,1.9-12,1.9c-5.8,0-11-1.3-15.7-3.8
			c-4.6-2.5-8.3-6-10.9-10.4c-2.6-4.4-4-9.4-4-15c0-5.6,1.3-10.6,4-15c2.6-4.4,6.3-7.9,11-10.4c4.7-2.5,9.9-3.8,15.8-3.8
			c4.8,0,9.1,0.8,13,2.4c3.9,1.6,7.2,3.9,9.8,6.9l-6.6,6.5c-4.3-4.3-9.5-6.5-15.7-6.5c-4,0-7.6,0.8-10.7,2.5c-3.1,1.7-5.5,4-7.3,7.1
			c-1.8,3-2.6,6.5-2.6,10.4c0,3.8,0.9,7.2,2.6,10.2c1.8,3,4.2,5.4,7.3,7.1c3.1,1.7,6.6,2.6,10.6,2.6c4.4,0,8.3-1,11.7-2.9V271z"/>
		<polygon class="st5" points="1623.5,243.3 1623.5,300 1614.8,300 1583.5,261.6 1583.5,300 1573.1,300 1573.1,243.3 1581.7,243.3 
			1613.1,281.7 1613.1,243.3 		"/>
		<rect x="1535.2" y="243.3" class="st5" width="10.5" height="56.8"/>
		<polygon class="st5" points="1485.9,252.2 1467.1,252.2 1467.1,243.3 1515.2,243.3 1515.2,252.2 1496.4,252.2 1496.4,300 
			1485.9,300 		"/>
		<polygon class="st5" points="1424.3,252.2 1405.4,252.2 1405.4,243.3 1453.6,243.3 1453.6,252.2 1434.8,252.2 1434.8,300 
			1424.3,300 		"/>
		<path class="st5" d="M1386.4,256.6c-2.6-4.4-6.3-7.9-10.9-10.4c-4.7-2.5-9.9-3.8-15.7-3.8c-5.8,0-11,1.3-15.7,3.8
			c-4.6,2.5-8.3,6-10.9,10.5c-2.6,4.5-4,9.4-4,15c0,5.5,1.3,10.5,4,15c2.6,4.5,6.3,7.9,10.9,10.5c4.6,2.5,9.9,3.8,15.7,3.8
			c5.8,0,11-1.3,15.7-3.8c4.6-2.5,8.3-6,10.9-10.4c2.6-4.4,4-9.4,4-15C1390.3,266.1,1389,261.1,1386.4,256.6z M1377.1,281.9
			c-1.7,3.1-4.1,5.4-7.1,7.1c-3,1.7-6.4,2.6-10.2,2.6c-3.8,0-7.2-0.9-10.2-2.6c-3-1.7-5.4-4.1-7.1-7.1c-1.7-3.1-2.6-6.5-2.6-10.3
			c0-3.8,0.9-7.2,2.6-10.2c1.7-3.1,4.1-5.4,7.1-7.1c3-1.7,6.4-2.5,10.2-2.5c3.8,0,7.2,0.8,10.2,2.5c3,1.7,5.4,4.1,7.1,7.1
			c1.7,3.1,2.6,6.5,2.6,10.2C1379.7,275.4,1378.9,278.8,1377.1,281.9z"/>
		<polygon class="st5" points="1306,243.3 1306,300 1295.5,300 1295.5,275.7 1266.1,275.7 1266.1,300 1255.6,300 1255.6,243.3 
			1266.1,243.3 1266.1,266.7 1295.5,266.7 1295.5,243.3 		"/>
	</g>
	<path class="st6" d="M1074.4,269.2v46.1h58.7c-0.9-19.2-5.4-37.5-13-54.7C1105.6,265.6,1090.2,268.5,1074.4,269.2"/>
	<path class="st6" d="M1074.4,197v57.7c13.5-0.6,26.7-3.1,39.2-7.1C1103.8,229.7,1090.5,211.1,1074.4,197"/>
	<path class="st6" d="M1074.4,375.9v-46.1h58.7c-0.9,19.2-5.4,37.5-13,54.7C1105.6,379.5,1090.2,376.6,1074.4,375.9"/>
	<path class="st6" d="M1074.4,448v-57.7c13.5,0.6,26.7,3.1,39.2,7.1C1103.8,415.3,1090.5,434,1074.4,448"/>
	<path class="st5" d="M1125.7,241c8.4-3.6,16.5-8,24.3-13c-16.6-14.5-37-24.8-59.5-29C1105.8,212.7,1117.5,225.7,1125.7,241"/>
	<path class="st5" d="M1133.6,255.5c8.2,18.7,13,38.8,13.9,59.8h45.2c-1.6-28.8-12.9-54.9-30.7-75.3
		C1153,246,1143.5,251.3,1133.6,255.5"/>
	<path class="st5" d="M1125.7,404.1c8.4,3.6,16.5,8,24.3,13c-16.6,14.5-37,24.8-59.5,29C1105.8,432.4,1117.5,419.4,1125.7,404.1"/>
	<path class="st5" d="M1133.6,389.5c8.2-18.7,13-38.8,13.9-59.8h45.2c-1.6,28.8-12.9,54.9-30.7,75.3
		C1153,399.1,1143.5,393.8,1133.6,389.5"/>
	<path class="st7" d="M1060,269.2v46.1h-58.7c0.9-19.2,5.4-37.5,13-54.7C1028.9,265.6,1044.2,268.5,1060,269.2"/>
	<path class="st7" d="M1060,197v57.7c-13.5-0.6-26.7-3.1-39.2-7.1C1030.7,229.7,1044,211.1,1060,197"/>
	<path class="st7" d="M1060,375.9v-46.1h-58.7c0.9,19.2,5.4,37.5,13,54.7C1028.9,379.5,1044.2,376.6,1060,375.9"/>
	<path class="st7" d="M1060,448v-57.7c-13.5,0.6-26.7,3.1-39.2,7.1C1030.7,415.3,1044,434,1060,448"/>
	<path class="st8" d="M1008.7,241c-8.4-3.6-16.5-8-24.3-13c16.6-14.5,37-24.8,59.5-29C1028.7,212.7,1016.9,225.7,1008.7,241"/>
	<path class="st8" d="M1000.8,255.5c-8.2,18.7-13,38.8-13.9,59.8h-45.2c1.6-28.8,12.9-54.9,30.7-75.3
		C981.5,246,990.9,251.3,1000.8,255.5"/>
	<path class="st8" d="M1008.7,404.1c-8.4,3.6-16.5,8-24.3,13c16.6,14.5,37,24.8,59.5,29C1028.7,432.4,1016.9,419.4,1008.7,404.1"/>
	<path class="st8" d="M1000.8,389.5c-8.2-18.7-13-38.8-13.9-59.8h-45.2c1.6,28.8,12.9,54.9,30.7,75.3
		C981.5,399.1,990.9,393.8,1000.8,389.5"/>
</g>
</svg>
